<svg clip-rule="evenodd" fill-rule="evenodd" height="1.707in" image-rendering="optimizeQuality" shape-rendering="geometricPrecision" text-rendering="geometricPrecision" viewBox="0 0 1707 1707" width="1.707in" xmlns="http://www.w3.org/2000/svg"><g id="Layer_x0020_1"><g fill-rule="nonzero"><path d="m141 687h1283c1-25 40-25 40 1v406c0 9-6 16-14 19 9 79 51 459-4 473-44 12-146 34-193 44 1 11-6 22-20 22h-972c-88 0-160-71-160-160v-804c0-26 39-26 40-1z" fill="#e93565"/><path d="m613 687h340v965h-340z" fill="#fc0"/><path d="m1464 1060c0 24 5 47-14 53 9 79 51 459-4 473-44 12-146 34-193 44 1 11-6 22-20 22h-35c-84-60-138-158-138-268 0-213 198-370 404-324z" fill="#d62966"/><path d="m141 687h1283c1-25 40-25 40 1v37h-1363v-37c0-26 39-26 40-1z" fill="#d62966"/><path d="m613 687h340v38h-340z" fill="#fbaa07"/></g><path d="m1155 342c-9 0-15-5-18-12l-348-1-7 7c-19 19-47-9-29-28l254-254c98-98 268-29 268 111 0 79-51 117-106 171-4 4-9 6-14 6z" fill="#ffb800"/><path d="m388 342c-30 0-130-136-26-240 61-61 163-63 223 1l195 205c18 20-11 47-29 28l-9-10-334 3c-4 8-11 13-20 13z" fill="#ffb800"/><path d="m1546 708h-1526c-11 0-20-9-20-20v-237c0-82 67-149 149-149h1267c83 0 150 67 150 149v237c0 11-9 20-20 20z" fill="#e93565"/><path d="m953 708h-340v-406h340z" fill="#fc0"/><path d="m1391 1607c-27 0-20-37-20-70 0-26 40-26 40 0 0 33 7 70-20 70z" fill="#ffbf61"/><path d="m1392 1699c-174 0-315-142-315-315 0-174 141-315 315-315 173 0 315 141 315 315 0 173-142 315-315 315z" fill="#fda804"/><path d="m1392 1109c-152 0-275 123-275 275 0 151 123 275 275 275 151 0 275-124 275-275 0-152-124-275-275-275z" fill="#fb8c25"/><path d="m1392 1557c-89 0-123-116-77-116 11 0 20 9 20 20 0 74 114 74 114 0 0-32-26-57-57-57-54 0-97-44-97-97s43-97 97-97c89 0 122 117 77 117-11 0-20-9-20-20 0-75-114-75-114 0 0 31 25 57 57 57 53 0 97 43 97 97 0 53-44 96-97 96z" fill="#ffbf61"/><path d="m1391 1250c-27 0-20-37-20-70 0-26 40-26 40 0 0 33 7 70-20 70z" fill="#ffbf61"/><path d="m396 1652h-135c-88 0-160-71-160-160v-135c22-16 42-21 87-21 157 0 266 156 214 303-1 3-4 8-6 13z" fill="#fa5f7f" fill-rule="nonzero"/></g></svg>