<svg viewBox="-61 0 512 512" xmlns="http://www.w3.org/2000/svg"><path d="m390 195c0 43.5-13.800781 84.300781-40.199219 118.800781l-135.902343 183.199219h-37.5l-137.398438-185c-25.5-33.902344-39-74.402344-39-117 0-107.402344 87.597656-195 195-195s195 87.597656 195 195zm0 0" fill="#ff7816"/><path d="m390 195c0 43.5-13.800781 84.300781-40.199219 118.800781l-135.902343 183.199219h-18.898438v-497c107.402344 0 195 87.597656 195 195zm0 0" fill="#ff4b00"/><path d="m195 60c-74.398438 0-135 60.597656-135 135 0 74.398438 60.601562 135 135 135s135-60.601562 135-135c0-74.402344-60.601562-135-135-135zm0 0" fill="#76e2f8"/><path d="m195 330v-270c74.398438 0 135 60.597656 135 135 0 74.398438-60.601562 135-135 135zm0 0" fill="#25d9f8"/><path d="m60 482h270v30h-270zm0 0" fill="#3e5959"/><path d="m265.5 175.5-70.5 70.800781-15 15-55.5-55.800781 21-21 34.5 34.199219 15-15 49.5-49.199219zm0 0" fill="#ececf1"/><path d="m195 482h135v30h-135zm0 0" fill="#3e5959"/><path d="m265.5 175.5-70.5 70.800781v-42.601562l49.5-49.199219zm0 0" fill="#e2e2e7"/></svg>