<svg height="512" viewBox="0 0 128 128" width="512" xmlns="http://www.w3.org/2000/svg"><g><g><path d="m43.825 63.105-19.299-28.162 23.546-6.926 31.856.001 23.546 6.925-19.299 28.162z" fill="#80f0ff"/><path d="m114 54.333-50 66.667-50-66.667z" fill="#30cffc"/><path d="m103.474 34.943-23.546 6.925h-31.856l-23.546-6.925-10.526 19.39 29.825 8.772h40.35l29.825-8.772z" fill="#75e1f7"/><path d="m84.175 63.105-20.175 57.895-20.175-57.895z" fill="#75e1f7"/><path d="m84.175 63.105-4.247-21.237h-31.856l-4.247 21.237z" fill="#30cffc"/></g><g fill="#e9f4ff"><g><path d="m69.753 14.5h-2.209a1.75 1.75 0 0 1 0-3.5h2.209a1.75 1.75 0 0 1 0 3.5z"/><path d="m60.456 14.5h-2.209a1.75 1.75 0 0 1 0-3.5h2.209a1.75 1.75 0 0 1 0 3.5z"/><path d="m64 20.255a1.749 1.749 0 0 1 -1.75-1.75v-2.205a1.75 1.75 0 1 1 3.5 0v2.209a1.749 1.749 0 0 1 -1.75 1.746z"/><path d="m64 10.959a1.75 1.75 0 0 1 -1.75-1.75v-2.209a1.75 1.75 0 0 1 3.5 0v2.209a1.75 1.75 0 0 1 -1.75 1.75z"/></g><g><g><path d="m31.279 97.725h-2.209a1.75 1.75 0 1 1 0-3.5h2.209a1.75 1.75 0 1 1 0 3.5z"/><path d="m21.982 97.725h-2.209a1.75 1.75 0 1 1 0-3.5h2.209a1.75 1.75 0 0 1 0 3.5z"/><path d="m25.526 103.477a1.751 1.751 0 0 1 -1.75-1.75v-2.209a1.75 1.75 0 0 1 3.5 0v2.209a1.75 1.75 0 0 1 -1.75 1.75z"/><path d="m25.526 94.181a1.751 1.751 0 0 1 -1.75-1.75v-2.209a1.75 1.75 0 0 1 3.5 0v2.209a1.75 1.75 0 0 1 -1.75 1.75z"/></g><g><path d="m108.227 97.725h-2.209a1.75 1.75 0 0 1 0-3.5h2.209a1.75 1.75 0 0 1 0 3.5z"/><path d="m98.93 97.725h-2.209a1.75 1.75 0 0 1 0-3.5h2.209a1.75 1.75 0 0 1 0 3.5z"/><path d="m102.474 103.477a1.75 1.75 0 0 1 -1.75-1.75v-2.209a1.75 1.75 0 0 1 3.5 0v2.209a1.751 1.751 0 0 1 -1.75 1.75z"/><path d="m102.474 94.181a1.75 1.75 0 0 1 -1.75-1.75v-2.209a1.75 1.75 0 0 1 3.5 0v2.209a1.751 1.751 0 0 1 -1.75 1.75z"/></g></g></g></g></svg>