<svg id="Capa_1" enable-background="new 0 0 512 512" height="512" viewBox="0 0 512 512" width="512" xmlns="http://www.w3.org/2000/svg"><g><path d="m475.54 144.371v69.813l-18.772 249.568c0 8.798-7.139 15.937-15.947 15.937l-18.765 32.309h-37.251l-128.804-73.939-128.804 73.939h-37.255l-26.74-20.322c-8.798 0-3.279-10.28-3.279-19.077l-23.462-258.416v-69.812z" fill="#2abcc8"/><path d="m36.461 144.371h439.079v54.692h-439.079z" fill="#0cacba"/><path d="m475.538 144.369v69.815c0 8.798-7.129 189.286-15.937 189.286h-32.893c8.798 0 15.937-7.139 15.937-15.937v-243.164z" fill="#0cacba"/><path d="m475.533 214.184v281.879c0 8.798-7.129 15.937-15.937 15.937h-37.54v-285.196c0-6.964 5.656-12.62 12.63-12.62z" fill="#deecf1"/><path d="m475.533 214.184v281.879c0 8.798-7.129 15.937-15.937 15.937h-32.894c8.798 0 15.937-7.139 15.937-15.937v-281.879z" fill="#cbe5e8"/><g fill="#deecf1"><path d="m89.942 511.998h-37.54c-8.803 0-15.94-7.136-15.94-15.94v-281.875h40.855c6.972 0 12.625 5.652 12.625 12.625z"/><path d="m384.805 226.804v285.196h-257.608v-285.196c0-6.964 5.645-12.62 12.62-12.62h232.369c6.973 0 12.619 5.655 12.619 12.62z"/></g><path d="m484.437 97.231h-456.874c-4.432 0-8.323 2.947-9.524 7.214l-17.661 62.764c-1.776 6.312 2.967 12.574 9.524 12.574h492.197c6.557 0 11.3-6.262 9.524-12.574l-17.662-62.764c-1.201-4.266-5.092-7.214-9.524-7.214z" fill="#ffe177"/><path d="m502.093 179.777h-36.056c6.562 0 11.301-6.253 9.529-12.568l-17.667-62.769c-1.195-4.265-5.089-7.211-9.519-7.211h36.056c4.43 0 8.324 2.947 9.519 7.211l17.667 62.769c1.772 6.315-2.967 12.568-9.529 12.568z" fill="#fece85"/><path d="m409.256.003h-306.512c-7.071 0-12.802 5.732-12.802 12.802v103.542c0 7.071 5.732 12.802 12.802 12.802h306.511c7.071 0 12.802-5.732 12.802-12.802v-103.542c.001-7.07-5.731-12.802-12.801-12.802z" fill="#fd8087"/><path d="m422.058 12.805v103.542c0 7.067-5.738 12.795-12.805 12.795h-29.453c7.077 0 12.805-5.728 12.805-12.795v-103.542c0-7.077-5.728-12.805-12.805-12.805h29.453c7.067 0 12.805 5.728 12.805 12.805z" fill="#fe646f"/><g fill="#deecf1"><path d="m239.663 23.379c-4.267 0-7.726 3.459-7.726 7.726v24.597h-30.872v-24.597c0-4.267-3.459-7.726-7.726-7.726s-7.726 3.459-7.726 7.726v66.942c0 4.267 3.459 7.726 7.726 7.726s7.726-3.459 7.726-7.726v-26.892h30.872v26.893c0 4.267 3.459 7.726 7.726 7.726s7.726-3.459 7.726-7.726v-66.943c0-4.267-3.459-7.726-7.726-7.726z"/><path d="m372.295 23.379h-18.605c-4.267 0-7.726 3.459-7.726 7.726v66.942c0 4.267 3.459 7.726 7.726 7.726s7.726-3.459 7.726-7.726v-21.393c3.916-.021 8.37-.04 10.878-.04 14.881 0 26.988-11.941 26.988-26.618s-12.106-26.617-26.987-26.617zm0 37.782c-2.51 0-6.956.02-10.878.04v-22.369h10.878c6.253 0 11.535 5.113 11.535 11.165s-5.283 11.164-11.535 11.164z"/><path d="m298.189 23.379c-22.716 0-41.198 18.481-41.198 41.197s18.481 41.198 41.198 41.198c22.716 0 41.198-18.481 41.198-41.198s-18.481-41.197-41.198-41.197zm0 66.942c-14.196 0-25.745-11.549-25.745-25.745s11.549-25.745 25.745-25.745 25.745 11.549 25.745 25.745-11.549 25.745-25.745 25.745z"/><path d="m154.825 57.855c-2.262-.834-4.4-1.569-6.287-2.217-6.354-2.183-10.551-3.625-13.308-6.477-1.322-1.369-1-3.303-.8-4.071.666-2.555 2.868-4.625 5.89-5.535 9.78-2.946 18.77 4.18 19.014 4.377 3.266 2.713 8.114 2.281 10.85-.973 2.745-3.267 2.323-8.14-.943-10.886-.621-.522-15.415-12.726-33.378-7.313-8.224 2.478-14.35 8.621-16.386 16.434-1.787 6.857-.052 13.85 4.641 18.706 5.337 5.523 11.854 7.762 19.4 10.354 1.898.652 3.861 1.326 5.959 2.1 3.087 1.138 10.161 4.375 9.187 9.829-.714 4.001-5.52 8.14-12.326 8.14-6.832 0-13.412-2.761-17.603-7.385-2.865-3.161-7.751-3.402-10.914-.536-3.161 2.865-3.402 7.752-.536 10.914 7.071 7.802 17.932 12.461 29.053 12.461 13.797 0 25.378-8.78 27.538-20.877 1.621-9.081-2.533-20.952-19.051-27.045z"/></g><path d="m248.274 214.184h15.453v297.816h-15.453z" fill="#cbe5e8"/><g fill="#fece85"><path d="m295.892 438.059c-7.112 0-12.877-5.765-12.877-12.877v-75.298c0-7.112 5.765-12.877 12.877-12.877 7.112 0 12.877 5.765 12.877 12.877v75.298c0 7.112-5.765 12.877-12.877 12.877z"/><path d="m216.108 438.059c-7.112 0-12.877-5.765-12.877-12.877v-75.298c0-7.112 5.765-12.877 12.877-12.877 7.112 0 12.877 5.765 12.877 12.877v75.298c0 7.112-5.765 12.877-12.877 12.877z"/></g></g></svg>